<?xml version="1.0" encoding="utf-8"?>
<svg version="1.1" xmlns:xlink="http://www.w3.org/1999/xlink" width="60px" height="60px" xmlns="http://www.w3.org/2000/svg">
  <defs>
    <mask fill="white" id="clip15">
      <path d="M 47 140  C 30.35 140  17 126.65  17 110  L 17 110  C 17 93.35  30.35 80  47 80  L 47 80  C 63.65 80  77 93.35  77 110  L 77 110  C 77 126.65  63.65 140  47 140  " fill-rule="evenodd" />
    </mask>
  </defs>
  <g transform="matrix(1 0 0 1 -17 -80 )">
    <path d="M 17 80  L 77 80  L 77 140  L 17 140  L 17 80  " fill-rule="nonzero" fill="#cccccc" stroke="none" mask="url(#clip15)" />
    <path d="M 21 84  L 73 84  L 73 136  L 21 136  L 21 84  " fill-rule="nonzero" fill="#ffffff" stroke="none" mask="url(#clip15)" />
    <path d="M 52.7 98  C 50.18 98  48.2 96.02  48.2 93.5  C 48.2 90.98  50.18 89  52.7 89  C 55.22 89  57.2 90.98  57.2 93.5  C 57.2 96.02  55.22 98  52.7 98  " fill-rule="nonzero" fill="#cccccc" stroke="none" mask="url(#clip15)" />
    <path d="M 23 135  L 23 108.05  L 35.25 95.8  L 52.4 105.6  L 62.2 103.15  L 72 105.6  L 72 135  L 23 135  " fill-rule="nonzero" fill="#169bd5" stroke="none" mask="url(#clip15)" />
  </g>
</svg>