<?xml version="1.0" encoding="utf-8"?>
<svg version="1.1" xmlns:xlink="http://www.w3.org/1999/xlink" width="30px" height="30px" xmlns="http://www.w3.org/2000/svg">
  <defs>
    <mask fill="white" id="clip104">
      <path d="M 88 233  C 79.675 233  73 226.325  73 218  L 73 218  C 73 209.675  79.675 203  88 203  L 88 203  C 96.325 203  103 209.675  103 218  L 103 218  C 103 226.325  96.325 233  88 233  " fill-rule="evenodd" />
    </mask>
  </defs>
  <g transform="matrix(1 0 0 1 -73 -203 )">
    <path d="M 73 203  L 103 203  L 103 233  L 73 233  L 73 203  " fill-rule="nonzero" fill="#cccccc" stroke="none" mask="url(#clip104)" />
    <path d="M 75 205  L 101 205  L 101 231  L 75 231  L 75 205  " fill-rule="nonzero" fill="#ffffff" stroke="none" mask="url(#clip104)" />
    <path d="M 90.85 212  C 89.59 212  88.6 211.01  88.6 209.75  C 88.6 208.49  89.59 207.5  90.85 207.5  C 92.11 207.5  93.1 208.49  93.1 209.75  C 93.1 211.01  92.11 212  90.85 212  " fill-rule="nonzero" fill="#cccccc" stroke="none" mask="url(#clip104)" />
    <path d="M 76 230  L 76 216.8  L 82 210.8  L 90.4 215.6  L 95.2 214.4  L 100 215.6  L 100 230  L 76 230  " fill-rule="nonzero" fill="#169bd5" stroke="none" mask="url(#clip104)" />
  </g>
</svg>