<?xml version="1.0" encoding="utf-8"?>
<svg version="1.1" xmlns:xlink="http://www.w3.org/1999/xlink" width="28px" height="28px" xmlns="http://www.w3.org/2000/svg">
  <g transform="matrix(1 0 0 1 -278 -79 )">
    <path d="M 292 80  C 299.28 80  305 85.72  305 93  C 305 100.28  299.28 106  292 106  C 284.72 106  279 100.28  279 93  C 279 85.72  284.72 80  292 80  Z " fill-rule="nonzero" fill="#ffffff" stroke="none" />
    <path d="M 292 80  C 299.28 80  305 85.72  305 93  C 305 100.28  299.28 106  292 106  C 284.72 106  279 100.28  279 93  C 279 85.72  284.72 80  292 80  Z " stroke-width="2" stroke="#b4ebf1" fill="none" />
  </g>
</svg>