<?xml version="1.0" encoding="utf-8"?>
<svg version="1.1" xmlns:xlink="http://www.w3.org/1999/xlink" width="60px" height="30px" xmlns="http://www.w3.org/2000/svg">
  <g transform="matrix(1 0 0 1 -158 -68 )">
    <path d="M 159 71  A 2 2 0 0 1 161 69 L 215 69  A 2 2 0 0 1 217 71 L 217 95  A 2 2 0 0 1 215 97 L 161 97  A 2 2 0 0 1 159 95 L 159 71  Z " fill-rule="nonzero" fill="#ffffff" stroke="none" fill-opacity="0" />
    <path d="M 158.5 71  A 2.5 2.5 0 0 1 161 68.5 L 215 68.5  A 2.5 2.5 0 0 1 217.5 71 L 217.5 95  A 2.5 2.5 0 0 1 215 97.5 L 161 97.5  A 2.5 2.5 0 0 1 158.5 95 L 158.5 71  Z " stroke-width="1" stroke="#09bb07" fill="none" stroke-opacity="0.698039215686274" />
  </g>
</svg>