<?xml version="1.0" encoding="utf-8"?>
<svg version="1.1" xmlns:xlink="http://www.w3.org/1999/xlink" width="90px" height="65px" xmlns="http://www.w3.org/2000/svg">
  <g transform="matrix(1 0 0 1 -125 -26 )">
    <path d="M 90 0  L 90 13  C 90 16.8787878787879  89.2215568862276 20.5  87.6646706586826 23.8636363636364  C 86.1077844311377 27.2272727272727  83.9820359281437 30.0909090909091  81.2874251497006 32.4545454545455  C 83.9820359281437 34.8787878787879  86.1077844311377 37.7575757575758  87.6646706586826 41.0909090909091  C 89.2215568862276 44.4242424242424  90 48.0606060606061  90 52  L 90 65  C 88.2035928143713 65  86.5269461077845 64.6666666666667  84.9700598802395 64  C 83.4131736526946 63.3333333333333  82.0508982035928 62.4090909090909  80.8832335329341 61.2272727272727  C 79.7155688622755 60.0454545454545  78.8023952095808 58.6666666666667  78.1437125748503 57.0909090909091  C 77.4850299401198 55.5151515151515  77.1556886227545 53.8181818181818  77.1556886227545 52  C 77.1556886227545 50.1818181818182  76.8263473053892 48.4848484848485  76.1676646706587 46.9090909090909  C 75.5089820359281 45.3333333333333  74.5958083832335 43.9545454545455  73.4281437125748 42.7727272727273  C 72.2604790419162 41.5909090909091  70.8982035928144 40.6666666666667  69.3413173652694 40  C 67.7844311377245 39.3333333333333  66.1077844311377 39  64.311377245509 39  C 62.5149700598802 39  60.8383233532934 39.3333333333333  59.2814371257485 40  C 57.7245508982036 40.6666666666667  56.3622754491018 41.5909090909091  55.1946107784431 42.7727272727273  C 54.0269461077844 43.9545454545455  53.1137724550898 45.3333333333333  52.4550898203593 46.9090909090909  C 51.7964071856288 48.4848484848485  51.4670658682635 50.1818181818182  51.4670658682635 52  C 51.4670658682635 53.8181818181818  51.1377245508982 55.5151515151515  50.4790419161677 57.0909090909091  C 49.8203592814371 58.6666666666667  48.9071856287425 60.0454545454545  47.7395209580838 61.2272727272727  C 46.5718562874251 62.4090909090909  45.2095808383233 63.3333333333333  43.6526946107784 64  C 42.0958083832335 64.6666666666667  40.4191616766467 65  39 65  L 39 52  C 38.622754491018 48.0606060606061  39.4011976047904 44.4242424242424  40.9580838323353 41.0909090909091  C 42.5149700598802 37.7575757575758  44.6407185628743 34.8787878787879  47.3353293413174 32.4545454545455  C 44.6407185628743 30.0909090909091  42.5149700598802 27.2272727272727  40.9580838323353 23.8636363636364  C 39.4011976047904 20.5  38.622754491018 16.8787878787879  39 13  L 39 0  C 40.4191616766467 0  42.0958083832335 0.333333333333335  43.6526946107784 1  C 45.2095808383233 1.66666666666667  46.5718562874251 2.59090909090909  47.7395209580838 3.77272727272727  C 48.9071856287425 4.95454545454546  49.8203592814371 6.33333333333334  50.4790419161677 7.90909090909091  C 51.1377245508982 9.48484848484849  51.4670658682635 11.1818181818182  51.4670658682635 13  C 51.4670658682635 14.8181818181818  51.7964071856288 16.5151515151515  52.4550898203593 18.0909090909091  C 53.1137724550898 19.6666666666667  54.0269461077844 21.0454545454545  55.1946107784431 22.2272727272727  C 56.3622754491018 23.4090909090909  57.7245508982036 24.3333333333333  59.2814371257485 25  C 60.8383233532934 25.6666666666667  62.5149700598802 26  64.311377245509 26  C 66.1077844311377 26  67.7844311377245 25.6666666666667  69.3413173652694 25  C 70.8982035928144 24.3333333333333  72.2604790419162 23.4090909090909  73.4281437125748 22.2272727272727  C 74.5958083832335 21.0454545454545  75.5089820359281 19.6666666666667  76.1676646706587 18.0909090909091  C 76.8263473053892 16.5151515151515  77.1556886227545 14.8181818181818  77.1556886227545 13  C 77.1556886227545 11.1818181818182  77.4850299401198 9.48484848484849  78.1437125748503 7.90909090909091  C 78.8023952095808 6.33333333333334  79.7155688622755 4.95454545454546  80.8832335329341 3.77272727272727  C 82.0508982035928 2.59090909090909  83.4131736526946 1.66666666666667  84.9700598802395 1  C 86.5269461077845 0.333333333333335  88.2035928143713 0  90 0  Z M 20.6586826347305 51  C 22.2155688622755 51.6666666666667  23.8922155688623 52  25.688622754491 52  C 28.3832335329341 52  30.7934131736527 51.2575757575758  32.9191616766467 49.7727272727273  C 35.0449101796407 48.2878787878788  36.5868263473054 46.3939393939394  37.5449101796407 44.0909090909091  C 36.8263473053892 46.5757575757576  36.4670658682635 49.2121212121212  37 52  L 37 62.6363636363636  C 33.0538922155689 64.2121212121212  29.4610778443114 65  25.688622754491 65  C 22.1556886227545 65  18.8323353293413 64.3181818181818  15.7185628742515 62.9545454545454  C 12.6047904191617 61.5909090909091  9.8802395209581 59.7272727272727  7.54491017964071 57.3636363636364  C 5.20958083832335 55  3.3682634730539 52.2424242424242  2.02095808383234 49.0909090909091  C 0.67365269461078 45.9393939393939  0 42.5757575757576  0 39  L 0 0  C 1.79640718562874 0  3.47305389221557 0.333333333333335  5.02994011976048 1  C 6.58682634730539 1.66666666666667  7.94910179640718 2.59090909090909  9.11676646706587 3.77272727272727  C 10.2844311377245 4.95454545454546  11.1976047904192 6.33333333333334  11.8562874251497 7.90909090909091  C 12.5149700598803 9.48484848484849  12.8443113772455 11.1818181818182  13 13  L 13 39  C 12.8443113772455 40.8181818181818  13.1736526946108 42.5151515151515  13.8323353293413 44.0909090909091  C 14.4910179640719 45.6666666666667  15.4041916167665 47.0454545454546  16.5718562874251 48.2272727272727  C 17.7395209580838 49.4090909090909  19.1017964071856 50.3333333333333  20.6586826347305 51  Z M 39 39  L 39 24.5454545454545  C 39.8802395209581 27.6363636363636  41.6167664670659 30.3939393939394  43.8323353293413 32.8181818181818  C 41.3173652694611 35.6666666666667  39.4311377245509 38.7878787878788  38.1736526946108 42.1818181818182  C 38.4730538922155 41.0909090909091  38.622754491018 40.030303030303  39 39  Z " fill-rule="nonzero" fill="#1abc9c" stroke="none" transform="matrix(1 0 0 1 125 26 )" />
  </g>
</svg>