<?xml version="1.0" encoding="utf-8"?>
<svg version="1.1" xmlns:xlink="http://www.w3.org/1999/xlink" width="40px" height="40px" xmlns="http://www.w3.org/2000/svg">
  <defs>
    <mask fill="white" id="clip696">
      <path d="M 40 50  C 28.9 50  20 41.1  20 30  L 20 30  C 20 18.9  28.9 10  40 10  L 40 10  C 51.1 10  60 18.9  60 30  L 60 30  C 60 41.1  51.1 50  40 50  " fill-rule="evenodd" />
    </mask>
  </defs>
  <g transform="matrix(1 0 0 1 -20 -10 )">
    <path d="M 20 10  L 60 10  L 60 50  L 20 50  L 20 10  " fill-rule="nonzero" fill="#cccccc" stroke="none" mask="url(#clip696)" />
    <path d="M 23 13  L 57 13  L 57 47  L 23 47  L 23 13  " fill-rule="nonzero" fill="#ffffff" stroke="none" mask="url(#clip696)" />
    <path d="M 43.8 22  C 42.12 22  40.8 20.68  40.8 19  C 40.8 17.32  42.12 16  43.8 16  C 45.48 16  46.8 17.32  46.8 19  C 46.8 20.68  45.48 22  43.8 22  " fill-rule="nonzero" fill="#cccccc" stroke="none" mask="url(#clip696)" />
    <path d="M 24 46  L 24 28.4  L 32 20.4  L 43.2 26.8  L 49.6 25.2  L 56 26.8  L 56 46  L 24 46  " fill-rule="nonzero" fill="#169bd5" stroke="none" mask="url(#clip696)" />
  </g>
</svg>