<?xml version="1.0" encoding="utf-8"?>
<svg version="1.1" xmlns:xlink="http://www.w3.org/1999/xlink" width="100px" height="70px" xmlns="http://www.w3.org/2000/svg">
  <g transform="matrix(1 0 0 1 -760 -32 )">
    <path d="M 760 32  L 860 32  L 860 102  L 760 102  L 760 32  " fill-rule="nonzero" fill="#cccccc" stroke="none" />
    <path d="M 765 37  L 855 37  L 855 97  L 765 97  L 765 37  " fill-rule="nonzero" fill="#ffffff" stroke="none" />
    <path d="M 817.25 53  C 814.31 53  812 50.69  812 47.75  C 812 44.81  814.31 42.5  817.25 42.5  C 820.19 42.5  822.5 44.81  822.5 47.75  C 822.5 50.69  820.19 53  817.25 53  " fill-rule="nonzero" fill="#cccccc" stroke="none" />
    <path d="M 767 95  L 767 64.2  L 788.5 50.2  L 818.6 71.48  L 835.8 58.6  L 853 71.48  L 853 95  L 767 95  " fill-rule="nonzero" fill="#169bd5" stroke="none" />
  </g>
</svg>