<?xml version="1.0" encoding="utf-8"?>
<svg version="1.1" xmlns:xlink="http://www.w3.org/1999/xlink" width="25px" height="25px" xmlns="http://www.w3.org/2000/svg">
  <g transform="matrix(1 0 0 1 -721 -37 )">
    <path d="M 14.1764322916667 17.0735677083333  C 14.2740885416667 17.1712239583333  14.3229166666667 17.2960069444444  14.3229166666667 17.4479166666667  L 14.3229166666667 20.0520833333333  C 14.3229166666667 20.2039930555556  14.2740885416667 20.3287760416667  14.1764322916667 20.4264322916667  C 14.0787760416667 20.5240885416667  13.9539930555556 20.5729166666667  13.8020833333333 20.5729166666667  L 11.1979166666667 20.5729166666667  C 11.0460069444444 20.5729166666667  10.9212239583333 20.5240885416667  10.8235677083333 20.4264322916667  C 10.7259114583333 20.3287760416667  10.6770833333333 20.2039930555556  10.6770833333333 20.0520833333333  L 10.6770833333333 17.4479166666667  C 10.6770833333333 17.2960069444444  10.7259114583333 17.1712239583333  10.8235677083333 17.0735677083333  C 10.9212239583333 16.9759114583333  11.0460069444444 16.9270833333333  11.1979166666667 16.9270833333333  L 13.8020833333333 16.9270833333333  C 13.9539930555556 16.9270833333333  14.0787760416667 16.9759114583333  14.1764322916667 17.0735677083333  Z M 16.7073567708333 5.8837890625  C 17.8955078125 6.85492621527778  18.4895833333333 8.01866319444444  18.4895833333333 9.375  C 18.4895833333333 9.91753472222222  18.408203125 10.4058159722222  18.2454427083333 10.83984375  C 18.0826822916667 11.2738715277778  17.8358289930556 11.6482204861111  17.5048828125 11.962890625  C 17.1739366319444 12.2775607638889  16.8918185763889 12.5162760416667  16.6585286458333 12.6790364583333  C 16.4252387152778 12.841796875  16.1024305555556 13.037109375  15.6901041666667 13.2649739583333  C 15.3428819444444 13.4602864583333  15.0906032986111 13.6121961805556  14.9332682291667 13.720703125  C 14.7759331597222 13.8292100694444  14.6348741319444 13.9594184027778  14.5100911458333 14.111328125  C 14.3853081597222 14.2632378472222  14.3229166666667 14.4205729166667  14.3229166666667 14.5833333333333  L 14.3229166666667 15.1041666666667  C 14.3229166666667 15.2560763888889  14.2740885416667 15.380859375  14.1764322916667 15.478515625  C 14.0787760416667 15.576171875  13.9539930555556 15.625  13.8020833333333 15.625  L 11.1979166666667 15.625  C 11.0460069444444 15.625  10.9212239583333 15.576171875  10.8235677083333 15.478515625  C 10.7259114583333 15.380859375  10.6770833333333 15.2560763888889  10.6770833333333 15.1041666666667  L 10.6770833333333 13.9973958333333  C 10.6770833333333 13.6176215277778  10.7340494791667 13.2676866319444  10.8479817708333 12.9475911458333  C 10.9619140625 12.6274956597222  11.0921223958333 12.3697916666667  11.2386067708333 12.1744791666667  C 11.3850911458333 11.9791666666667  11.5966796875 11.7865668402778  11.8733723958333 11.5966796875  C 12.1500651041667 11.4067925347222  12.3725043402778 11.2684461805556  12.5406901041667 11.181640625  C 12.7088758680556 11.0948350694444  12.9503038194444 10.9809027777778  13.2649739583333 10.83984375  C 13.8400607638889 10.5685763888889  14.2469618055556 10.3352864583333  14.4856770833333 10.1399739583333  C 14.7243923611111 9.94466145833333  14.84375 9.67881944444444  14.84375 9.34244791666667  C 14.84375 8.88671875  14.6077473958333 8.49880642361111  14.1357421875 8.1787109375  C 13.6637369791667 7.85861545138889  13.1456163194444 7.69856770833333  12.5813802083333 7.69856770833333  C 11.9737413194444 7.69856770833333  11.4583333333333 7.84505208333333  11.03515625 8.13802083333333  C 10.7204861111111 8.35503472222222  10.2864583333333 8.80533854166667  9.73307291666667 9.48893229166667  C 9.63541666666667 9.619140625  9.49978298611111 9.68424479166667  9.326171875 9.68424479166667  C 9.20681423611111 9.68424479166667  9.10373263888889 9.65169270833333  9.01692708333333 9.58658854166667  L 7.25911458333333 8.251953125  C 7.15060763888889 8.17599826388889  7.08550347222222 8.06749131944444  7.06380208333333 7.92643229166667  C 7.04210069444445 7.78537326388889  7.06922743055556 7.66059027777778  7.14518229166667 7.55208333333333  C 8.46896701388889 5.46875  10.3624131944444 4.42708333333333  12.8255208333333 4.42708333333333  C 14.2252604166667 4.42708333333333  15.5192057291667 4.91265190972222  16.7073567708333 5.8837890625  Z M 16.5445963541667 2.91341145833333  C 15.2587890625 2.36002604166667  13.9105902777778 2.08333333333333  12.5 2.08333333333333  C 11.0894097222222 2.08333333333333  9.7412109375 2.36002604166667  8.45540364583333 2.91341145833333  C 7.16959635416667 3.466796875  6.06282552083333 4.20735677083333  5.13509114583333 5.13509114583333  C 4.20735677083333 6.06282552083333  3.466796875 7.16959635416667  2.91341145833333 8.45540364583333  C 2.36002604166667 9.7412109375  2.08333333333333 11.0894097222222  2.08333333333333 12.5  C 2.08333333333333 13.9105902777778  2.36002604166667 15.2587890625  2.91341145833333 16.5445963541667  C 3.466796875 17.8304036458333  4.20735677083333 18.9371744791667  5.13509114583333 19.8649088541667  C 6.06282552083333 20.7926432291667  7.16959635416667 21.533203125  8.45540364583333 22.0865885416667  C 9.7412109375 22.6399739583333  11.0894097222222 22.9166666666667  12.5 22.9166666666667  C 13.9105902777778 22.9166666666667  15.2587890625 22.6399739583333  16.5445963541667 22.0865885416667  C 17.8304036458333 21.533203125  18.9371744791667 20.7926432291667  19.8649088541667 19.8649088541667  C 20.7926432291667 18.9371744791667  21.533203125 17.8304036458333  22.0865885416667 16.5445963541667  C 22.6399739583333 15.2587890625  22.9166666666667 13.9105902777778  22.9166666666667 12.5  C 22.9166666666667 11.0894097222222  22.6399739583333 9.7412109375  22.0865885416667 8.45540364583333  C 21.533203125 7.16959635416667  20.7926432291667 6.06282552083333  19.8649088541667 5.13509114583333  C 18.9371744791667 4.20735677083333  17.8304036458333 3.466796875  16.5445963541667 2.91341145833333  Z M 23.3235677083333 6.2255859375  C 24.4411892361111 8.14073350694444  25 10.2322048611111  25 12.5  C 25 14.7677951388889  24.4411892361111 16.8592664930556  23.3235677083333 18.7744140625  C 22.2059461805556 20.6895616319444  20.6895616319444 22.2059461805556  18.7744140625 23.3235677083333  C 16.8592664930556 24.4411892361111  14.7677951388889 25  12.5 25  C 10.2322048611111 25  8.14073350694444 24.4411892361111  6.2255859375 23.3235677083333  C 4.31043836805556 22.2059461805556  2.79405381944444 20.6895616319444  1.67643229166667 18.7744140625  C 0.558810763888889 16.8592664930556  0 14.7677951388889  0 12.5  C 0 10.2322048611111  0.558810763888889 8.14073350694444  1.67643229166667 6.2255859375  C 2.79405381944444 4.31043836805556  4.31043836805556 2.79405381944444  6.2255859375 1.67643229166667  C 8.14073350694444 0.558810763888887  10.2322048611111 0  12.5 0  C 14.7677951388889 0  16.8592664930556 0.558810763888887  18.7744140625 1.67643229166667  C 20.6895616319444 2.79405381944444  22.2059461805556 4.31043836805556  23.3235677083333 6.2255859375  Z " fill-rule="nonzero" fill="#02a7f0" stroke="none" transform="matrix(1 0 0 1 721 37 )" />
  </g>
</svg>